<svg xmlns="http://www.w3.org/2000/svg" viewBox="0 0 198 198" role="img" aria-label="示意用 QR code">
<rect width="198" height="198" rx="14" fill="#f7fbff"/>
<rect x="3" y="3" width="192" height="192" rx="12" fill="none" stroke="#4fd8ff" stroke-width="2" opacity=".45"/>
<rect x="12" y="12" width="6" height="6" fill="#07192c"/>
<rect x="18" y="12" width="6" height="6" fill="#07192c"/>
<rect x="24" y="12" width="6" height="6" fill="#07192c"/>
<rect x="30" y="12" width="6" height="6" fill="#07192c"/>
<rect x="36" y="12" width="6" height="6" fill="#07192c"/>
<rect x="42" y="12" width="6" height="6" fill="#07192c"/>
<rect x="48" y="12" width="6" height="6" fill="#07192c"/>
<rect x="132" y="12" width="6" height="6" fill="#07192c"/>
<rect x="144" y="12" width="6" height="6" fill="#07192c"/>
<rect x="150" y="12" width="6" height="6" fill="#07192c"/>
<rect x="156" y="12" width="6" height="6" fill="#07192c"/>
<rect x="162" y="12" width="6" height="6" fill="#07192c"/>
<rect x="168" y="12" width="6" height="6" fill="#07192c"/>
<rect x="174" y="12" width="6" height="6" fill="#07192c"/>
<rect x="180" y="12" width="6" height="6" fill="#07192c"/>
<rect x="12" y="18" width="6" height="6" fill="#07192c"/>
<rect x="48" y="18" width="6" height="6" fill="#07192c"/>
<rect x="66" y="18" width="6" height="6" fill="#07192c"/>
<rect x="72" y="18" width="6" height="6" fill="#07192c"/>
<rect x="78" y="18" width="6" height="6" fill="#07192c"/>
<rect x="84" y="18" width="6" height="6" fill="#07192c"/>
<rect x="90" y="18" width="6" height="6" fill="#07192c"/>
<rect x="108" y="18" width="6" height="6" fill="#07192c"/>
<rect x="114" y="18" width="6" height="6" fill="#07192c"/>
<rect x="120" y="18" width="6" height="6" fill="#07192c"/>
<rect x="126" y="18" width="6" height="6" fill="#07192c"/>
<rect x="132" y="18" width="6" height="6" fill="#07192c"/>
<rect x="144" y="18" width="6" height="6" fill="#07192c"/>
<rect x="180" y="18" width="6" height="6" fill="#07192c"/>
<rect x="12" y="24" width="6" height="6" fill="#07192c"/>
<rect x="24" y="24" width="6" height="6" fill="#07192c"/>
<rect x="30" y="24" width="6" height="6" fill="#07192c"/>
<rect x="36" y="24" width="6" height="6" fill="#07192c"/>
<rect x="48" y="24" width="6" height="6" fill="#07192c"/>
<rect x="60" y="24" width="6" height="6" fill="#07192c"/>
<rect x="72" y="24" width="6" height="6" fill="#07192c"/>
<rect x="84" y="24" width="6" height="6" fill="#07192c"/>
<rect x="96" y="24" width="6" height="6" fill="#07192c"/>
<rect x="102" y="24" width="6" height="6" fill="#07192c"/>
<rect x="108" y="24" width="6" height="6" fill="#07192c"/>
<rect x="114" y="24" width="6" height="6" fill="#07192c"/>
<rect x="144" y="24" width="6" height="6" fill="#07192c"/>
<rect x="156" y="24" width="6" height="6" fill="#07192c"/>
<rect x="162" y="24" width="6" height="6" fill="#07192c"/>
<rect x="168" y="24" width="6" height="6" fill="#07192c"/>
<rect x="180" y="24" width="6" height="6" fill="#07192c"/>
<rect x="12" y="30" width="6" height="6" fill="#07192c"/>
<rect x="24" y="30" width="6" height="6" fill="#07192c"/>
<rect x="30" y="30" width="6" height="6" fill="#07192c"/>
<rect x="36" y="30" width="6" height="6" fill="#07192c"/>
<rect x="48" y="30" width="6" height="6" fill="#07192c"/>
<rect x="66" y="30" width="6" height="6" fill="#07192c"/>
<rect x="90" y="30" width="6" height="6" fill="#07192c"/>
<rect x="108" y="30" width="6" height="6" fill="#07192c"/>
<rect x="120" y="30" width="6" height="6" fill="#07192c"/>
<rect x="126" y="30" width="6" height="6" fill="#07192c"/>
<rect x="144" y="30" width="6" height="6" fill="#07192c"/>
<rect x="156" y="30" width="6" height="6" fill="#07192c"/>
<rect x="162" y="30" width="6" height="6" fill="#07192c"/>
<rect x="168" y="30" width="6" height="6" fill="#07192c"/>
<rect x="180" y="30" width="6" height="6" fill="#07192c"/>
<rect x="12" y="36" width="6" height="6" fill="#07192c"/>
<rect x="24" y="36" width="6" height="6" fill="#07192c"/>
<rect x="30" y="36" width="6" height="6" fill="#07192c"/>
<rect x="36" y="36" width="6" height="6" fill="#07192c"/>
<rect x="48" y="36" width="6" height="6" fill="#07192c"/>
<rect x="84" y="36" width="6" height="6" fill="#07192c"/>
<rect x="90" y="36" width="6" height="6" fill="#07192c"/>
<rect x="96" y="36" width="6" height="6" fill="#07192c"/>
<rect x="108" y="36" width="6" height="6" fill="#07192c"/>
<rect x="144" y="36" width="6" height="6" fill="#07192c"/>
<rect x="156" y="36" width="6" height="6" fill="#07192c"/>
<rect x="162" y="36" width="6" height="6" fill="#07192c"/>
<rect x="168" y="36" width="6" height="6" fill="#07192c"/>
<rect x="180" y="36" width="6" height="6" fill="#07192c"/>
<rect x="12" y="42" width="6" height="6" fill="#07192c"/>
<rect x="48" y="42" width="6" height="6" fill="#07192c"/>
<rect x="60" y="42" width="6" height="6" fill="#07192c"/>
<rect x="66" y="42" width="6" height="6" fill="#07192c"/>
<rect x="72" y="42" width="6" height="6" fill="#07192c"/>
<rect x="108" y="42" width="6" height="6" fill="#07192c"/>
<rect x="126" y="42" width="6" height="6" fill="#07192c"/>
<rect x="144" y="42" width="6" height="6" fill="#07192c"/>
<rect x="180" y="42" width="6" height="6" fill="#07192c"/>
<rect x="12" y="48" width="6" height="6" fill="#07192c"/>
<rect x="18" y="48" width="6" height="6" fill="#07192c"/>
<rect x="24" y="48" width="6" height="6" fill="#07192c"/>
<rect x="30" y="48" width="6" height="6" fill="#07192c"/>
<rect x="36" y="48" width="6" height="6" fill="#07192c"/>
<rect x="42" y="48" width="6" height="6" fill="#07192c"/>
<rect x="48" y="48" width="6" height="6" fill="#07192c"/>
<rect x="66" y="48" width="6" height="6" fill="#07192c"/>
<rect x="84" y="48" width="6" height="6" fill="#07192c"/>
<rect x="90" y="48" width="6" height="6" fill="#07192c"/>
<rect x="96" y="48" width="6" height="6" fill="#07192c"/>
<rect x="108" y="48" width="6" height="6" fill="#07192c"/>
<rect x="144" y="48" width="6" height="6" fill="#07192c"/>
<rect x="150" y="48" width="6" height="6" fill="#07192c"/>
<rect x="156" y="48" width="6" height="6" fill="#07192c"/>
<rect x="162" y="48" width="6" height="6" fill="#07192c"/>
<rect x="168" y="48" width="6" height="6" fill="#07192c"/>
<rect x="174" y="48" width="6" height="6" fill="#07192c"/>
<rect x="180" y="48" width="6" height="6" fill="#07192c"/>
<rect x="66" y="54" width="6" height="6" fill="#07192c"/>
<rect x="78" y="54" width="6" height="6" fill="#07192c"/>
<rect x="90" y="54" width="6" height="6" fill="#07192c"/>
<rect x="108" y="54" width="6" height="6" fill="#07192c"/>
<rect x="120" y="54" width="6" height="6" fill="#07192c"/>
<rect x="12" y="60" width="6" height="6" fill="#07192c"/>
<rect x="18" y="60" width="6" height="6" fill="#07192c"/>
<rect x="24" y="60" width="6" height="6" fill="#07192c"/>
<rect x="36" y="60" width="6" height="6" fill="#07192c"/>
<rect x="48" y="60" width="6" height="6" fill="#07192c"/>
<rect x="54" y="60" width="6" height="6" fill="#07192c"/>
<rect x="66" y="60" width="6" height="6" fill="#07192c"/>
<rect x="84" y="60" width="6" height="6" fill="#07192c"/>
<rect x="102" y="60" width="6" height="6" fill="#07192c"/>
<rect x="120" y="60" width="6" height="6" fill="#07192c"/>
<rect x="126" y="60" width="6" height="6" fill="#07192c"/>
<rect x="150" y="60" width="6" height="6" fill="#07192c"/>
<rect x="162" y="60" width="6" height="6" fill="#07192c"/>
<rect x="168" y="60" width="6" height="6" fill="#07192c"/>
<rect x="174" y="60" width="6" height="6" fill="#07192c"/>
<rect x="12" y="66" width="6" height="6" fill="#07192c"/>
<rect x="18" y="66" width="6" height="6" fill="#07192c"/>
<rect x="48" y="66" width="6" height="6" fill="#07192c"/>
<rect x="66" y="66" width="6" height="6" fill="#07192c"/>
<rect x="78" y="66" width="6" height="6" fill="#07192c"/>
<rect x="84" y="66" width="6" height="6" fill="#07192c"/>
<rect x="114" y="66" width="6" height="6" fill="#07192c"/>
<rect x="120" y="66" width="6" height="6" fill="#07192c"/>
<rect x="144" y="66" width="6" height="6" fill="#07192c"/>
<rect x="150" y="66" width="6" height="6" fill="#07192c"/>
<rect x="162" y="66" width="6" height="6" fill="#07192c"/>
<rect x="168" y="66" width="6" height="6" fill="#07192c"/>
<rect x="174" y="66" width="6" height="6" fill="#07192c"/>
<rect x="12" y="72" width="6" height="6" fill="#07192c"/>
<rect x="36" y="72" width="6" height="6" fill="#07192c"/>
<rect x="42" y="72" width="6" height="6" fill="#07192c"/>
<rect x="48" y="72" width="6" height="6" fill="#07192c"/>
<rect x="60" y="72" width="6" height="6" fill="#07192c"/>
<rect x="72" y="72" width="6" height="6" fill="#07192c"/>
<rect x="78" y="72" width="6" height="6" fill="#07192c"/>
<rect x="84" y="72" width="6" height="6" fill="#07192c"/>
<rect x="96" y="72" width="6" height="6" fill="#07192c"/>
<rect x="150" y="72" width="6" height="6" fill="#07192c"/>
<rect x="162" y="72" width="6" height="6" fill="#07192c"/>
<rect x="168" y="72" width="6" height="6" fill="#07192c"/>
<rect x="174" y="72" width="6" height="6" fill="#07192c"/>
<rect x="180" y="72" width="6" height="6" fill="#07192c"/>
<rect x="48" y="78" width="6" height="6" fill="#07192c"/>
<rect x="60" y="78" width="6" height="6" fill="#07192c"/>
<rect x="96" y="78" width="6" height="6" fill="#07192c"/>
<rect x="114" y="78" width="6" height="6" fill="#07192c"/>
<rect x="132" y="78" width="6" height="6" fill="#07192c"/>
<rect x="150" y="78" width="6" height="6" fill="#07192c"/>
<rect x="168" y="78" width="6" height="6" fill="#07192c"/>
<rect x="18" y="84" width="6" height="6" fill="#07192c"/>
<rect x="30" y="84" width="6" height="6" fill="#07192c"/>
<rect x="42" y="84" width="6" height="6" fill="#07192c"/>
<rect x="84" y="84" width="6" height="6" fill="#07192c"/>
<rect x="96" y="84" width="6" height="6" fill="#07192c"/>
<rect x="144" y="84" width="6" height="6" fill="#07192c"/>
<rect x="168" y="84" width="6" height="6" fill="#07192c"/>
<rect x="96" y="90" width="6" height="6" fill="#07192c"/>
<rect x="102" y="90" width="6" height="6" fill="#07192c"/>
<rect x="120" y="90" width="6" height="6" fill="#07192c"/>
<rect x="162" y="90" width="6" height="6" fill="#07192c"/>
<rect x="174" y="90" width="6" height="6" fill="#07192c"/>
<rect x="180" y="90" width="6" height="6" fill="#07192c"/>
<rect x="42" y="96" width="6" height="6" fill="#07192c"/>
<rect x="48" y="96" width="6" height="6" fill="#07192c"/>
<rect x="66" y="96" width="6" height="6" fill="#07192c"/>
<rect x="78" y="96" width="6" height="6" fill="#07192c"/>
<rect x="90" y="96" width="6" height="6" fill="#07192c"/>
<rect x="102" y="96" width="6" height="6" fill="#07192c"/>
<rect x="114" y="96" width="6" height="6" fill="#07192c"/>
<rect x="126" y="96" width="6" height="6" fill="#07192c"/>
<rect x="132" y="96" width="6" height="6" fill="#07192c"/>
<rect x="144" y="96" width="6" height="6" fill="#07192c"/>
<rect x="150" y="96" width="6" height="6" fill="#07192c"/>
<rect x="156" y="96" width="6" height="6" fill="#07192c"/>
<rect x="174" y="96" width="6" height="6" fill="#07192c"/>
<rect x="24" y="102" width="6" height="6" fill="#07192c"/>
<rect x="54" y="102" width="6" height="6" fill="#07192c"/>
<rect x="108" y="102" width="6" height="6" fill="#07192c"/>
<rect x="114" y="102" width="6" height="6" fill="#07192c"/>
<rect x="120" y="102" width="6" height="6" fill="#07192c"/>
<rect x="132" y="102" width="6" height="6" fill="#07192c"/>
<rect x="150" y="102" width="6" height="6" fill="#07192c"/>
<rect x="156" y="102" width="6" height="6" fill="#07192c"/>
<rect x="18" y="108" width="6" height="6" fill="#07192c"/>
<rect x="48" y="108" width="6" height="6" fill="#07192c"/>
<rect x="66" y="108" width="6" height="6" fill="#07192c"/>
<rect x="84" y="108" width="6" height="6" fill="#07192c"/>
<rect x="90" y="108" width="6" height="6" fill="#07192c"/>
<rect x="102" y="108" width="6" height="6" fill="#07192c"/>
<rect x="108" y="108" width="6" height="6" fill="#07192c"/>
<rect x="120" y="108" width="6" height="6" fill="#07192c"/>
<rect x="132" y="108" width="6" height="6" fill="#07192c"/>
<rect x="138" y="108" width="6" height="6" fill="#07192c"/>
<rect x="144" y="108" width="6" height="6" fill="#07192c"/>
<rect x="168" y="108" width="6" height="6" fill="#07192c"/>
<rect x="42" y="114" width="6" height="6" fill="#07192c"/>
<rect x="72" y="114" width="6" height="6" fill="#07192c"/>
<rect x="84" y="114" width="6" height="6" fill="#07192c"/>
<rect x="96" y="114" width="6" height="6" fill="#07192c"/>
<rect x="108" y="114" width="6" height="6" fill="#07192c"/>
<rect x="114" y="114" width="6" height="6" fill="#07192c"/>
<rect x="132" y="114" width="6" height="6" fill="#07192c"/>
<rect x="12" y="120" width="6" height="6" fill="#07192c"/>
<rect x="36" y="120" width="6" height="6" fill="#07192c"/>
<rect x="60" y="120" width="6" height="6" fill="#07192c"/>
<rect x="84" y="120" width="6" height="6" fill="#07192c"/>
<rect x="90" y="120" width="6" height="6" fill="#07192c"/>
<rect x="96" y="120" width="6" height="6" fill="#07192c"/>
<rect x="102" y="120" width="6" height="6" fill="#07192c"/>
<rect x="108" y="120" width="6" height="6" fill="#07192c"/>
<rect x="132" y="120" width="6" height="6" fill="#07192c"/>
<rect x="138" y="120" width="6" height="6" fill="#07192c"/>
<rect x="150" y="120" width="6" height="6" fill="#07192c"/>
<rect x="156" y="120" width="6" height="6" fill="#07192c"/>
<rect x="168" y="120" width="6" height="6" fill="#07192c"/>
<rect x="174" y="120" width="6" height="6" fill="#07192c"/>
<rect x="180" y="120" width="6" height="6" fill="#07192c"/>
<rect x="12" y="126" width="6" height="6" fill="#07192c"/>
<rect x="18" y="126" width="6" height="6" fill="#07192c"/>
<rect x="24" y="126" width="6" height="6" fill="#07192c"/>
<rect x="30" y="126" width="6" height="6" fill="#07192c"/>
<rect x="42" y="126" width="6" height="6" fill="#07192c"/>
<rect x="48" y="126" width="6" height="6" fill="#07192c"/>
<rect x="54" y="126" width="6" height="6" fill="#07192c"/>
<rect x="60" y="126" width="6" height="6" fill="#07192c"/>
<rect x="78" y="126" width="6" height="6" fill="#07192c"/>
<rect x="120" y="126" width="6" height="6" fill="#07192c"/>
<rect x="126" y="126" width="6" height="6" fill="#07192c"/>
<rect x="138" y="126" width="6" height="6" fill="#07192c"/>
<rect x="156" y="126" width="6" height="6" fill="#07192c"/>
<rect x="168" y="126" width="6" height="6" fill="#07192c"/>
<rect x="12" y="132" width="6" height="6" fill="#07192c"/>
<rect x="24" y="132" width="6" height="6" fill="#07192c"/>
<rect x="30" y="132" width="6" height="6" fill="#07192c"/>
<rect x="48" y="132" width="6" height="6" fill="#07192c"/>
<rect x="78" y="132" width="6" height="6" fill="#07192c"/>
<rect x="84" y="132" width="6" height="6" fill="#07192c"/>
<rect x="102" y="132" width="6" height="6" fill="#07192c"/>
<rect x="126" y="132" width="6" height="6" fill="#07192c"/>
<rect x="138" y="132" width="6" height="6" fill="#07192c"/>
<rect x="144" y="132" width="6" height="6" fill="#07192c"/>
<rect x="150" y="132" width="6" height="6" fill="#07192c"/>
<rect x="162" y="132" width="6" height="6" fill="#07192c"/>
<rect x="168" y="132" width="6" height="6" fill="#07192c"/>
<rect x="174" y="132" width="6" height="6" fill="#07192c"/>
<rect x="180" y="132" width="6" height="6" fill="#07192c"/>
<rect x="120" y="138" width="6" height="6" fill="#07192c"/>
<rect x="126" y="138" width="6" height="6" fill="#07192c"/>
<rect x="144" y="138" width="6" height="6" fill="#07192c"/>
<rect x="168" y="138" width="6" height="6" fill="#07192c"/>
<rect x="174" y="138" width="6" height="6" fill="#07192c"/>
<rect x="12" y="144" width="6" height="6" fill="#07192c"/>
<rect x="18" y="144" width="6" height="6" fill="#07192c"/>
<rect x="24" y="144" width="6" height="6" fill="#07192c"/>
<rect x="30" y="144" width="6" height="6" fill="#07192c"/>
<rect x="36" y="144" width="6" height="6" fill="#07192c"/>
<rect x="42" y="144" width="6" height="6" fill="#07192c"/>
<rect x="48" y="144" width="6" height="6" fill="#07192c"/>
<rect x="60" y="144" width="6" height="6" fill="#07192c"/>
<rect x="66" y="144" width="6" height="6" fill="#07192c"/>
<rect x="72" y="144" width="6" height="6" fill="#07192c"/>
<rect x="78" y="144" width="6" height="6" fill="#07192c"/>
<rect x="90" y="144" width="6" height="6" fill="#07192c"/>
<rect x="96" y="144" width="6" height="6" fill="#07192c"/>
<rect x="108" y="144" width="6" height="6" fill="#07192c"/>
<rect x="114" y="144" width="6" height="6" fill="#07192c"/>
<rect x="120" y="144" width="6" height="6" fill="#07192c"/>
<rect x="144" y="144" width="6" height="6" fill="#07192c"/>
<rect x="150" y="144" width="6" height="6" fill="#07192c"/>
<rect x="12" y="150" width="6" height="6" fill="#07192c"/>
<rect x="48" y="150" width="6" height="6" fill="#07192c"/>
<rect x="60" y="150" width="6" height="6" fill="#07192c"/>
<rect x="84" y="150" width="6" height="6" fill="#07192c"/>
<rect x="90" y="150" width="6" height="6" fill="#07192c"/>
<rect x="108" y="150" width="6" height="6" fill="#07192c"/>
<rect x="114" y="150" width="6" height="6" fill="#07192c"/>
<rect x="138" y="150" width="6" height="6" fill="#07192c"/>
<rect x="168" y="150" width="6" height="6" fill="#07192c"/>
<rect x="180" y="150" width="6" height="6" fill="#07192c"/>
<rect x="12" y="156" width="6" height="6" fill="#07192c"/>
<rect x="24" y="156" width="6" height="6" fill="#07192c"/>
<rect x="30" y="156" width="6" height="6" fill="#07192c"/>
<rect x="36" y="156" width="6" height="6" fill="#07192c"/>
<rect x="48" y="156" width="6" height="6" fill="#07192c"/>
<rect x="66" y="156" width="6" height="6" fill="#07192c"/>
<rect x="90" y="156" width="6" height="6" fill="#07192c"/>
<rect x="102" y="156" width="6" height="6" fill="#07192c"/>
<rect x="120" y="156" width="6" height="6" fill="#07192c"/>
<rect x="138" y="156" width="6" height="6" fill="#07192c"/>
<rect x="144" y="156" width="6" height="6" fill="#07192c"/>
<rect x="162" y="156" width="6" height="6" fill="#07192c"/>
<rect x="174" y="156" width="6" height="6" fill="#07192c"/>
<rect x="12" y="162" width="6" height="6" fill="#07192c"/>
<rect x="24" y="162" width="6" height="6" fill="#07192c"/>
<rect x="30" y="162" width="6" height="6" fill="#07192c"/>
<rect x="36" y="162" width="6" height="6" fill="#07192c"/>
<rect x="48" y="162" width="6" height="6" fill="#07192c"/>
<rect x="66" y="162" width="6" height="6" fill="#07192c"/>
<rect x="72" y="162" width="6" height="6" fill="#07192c"/>
<rect x="84" y="162" width="6" height="6" fill="#07192c"/>
<rect x="132" y="162" width="6" height="6" fill="#07192c"/>
<rect x="162" y="162" width="6" height="6" fill="#07192c"/>
<rect x="168" y="162" width="6" height="6" fill="#07192c"/>
<rect x="174" y="162" width="6" height="6" fill="#07192c"/>
<rect x="12" y="168" width="6" height="6" fill="#07192c"/>
<rect x="24" y="168" width="6" height="6" fill="#07192c"/>
<rect x="30" y="168" width="6" height="6" fill="#07192c"/>
<rect x="36" y="168" width="6" height="6" fill="#07192c"/>
<rect x="48" y="168" width="6" height="6" fill="#07192c"/>
<rect x="60" y="168" width="6" height="6" fill="#07192c"/>
<rect x="84" y="168" width="6" height="6" fill="#07192c"/>
<rect x="102" y="168" width="6" height="6" fill="#07192c"/>
<rect x="108" y="168" width="6" height="6" fill="#07192c"/>
<rect x="120" y="168" width="6" height="6" fill="#07192c"/>
<rect x="132" y="168" width="6" height="6" fill="#07192c"/>
<rect x="138" y="168" width="6" height="6" fill="#07192c"/>
<rect x="150" y="168" width="6" height="6" fill="#07192c"/>
<rect x="174" y="168" width="6" height="6" fill="#07192c"/>
<rect x="12" y="174" width="6" height="6" fill="#07192c"/>
<rect x="48" y="174" width="6" height="6" fill="#07192c"/>
<rect x="66" y="174" width="6" height="6" fill="#07192c"/>
<rect x="84" y="174" width="6" height="6" fill="#07192c"/>
<rect x="90" y="174" width="6" height="6" fill="#07192c"/>
<rect x="102" y="174" width="6" height="6" fill="#07192c"/>
<rect x="126" y="174" width="6" height="6" fill="#07192c"/>
<rect x="132" y="174" width="6" height="6" fill="#07192c"/>
<rect x="162" y="174" width="6" height="6" fill="#07192c"/>
<rect x="174" y="174" width="6" height="6" fill="#07192c"/>
<rect x="180" y="174" width="6" height="6" fill="#07192c"/>
<rect x="12" y="180" width="6" height="6" fill="#07192c"/>
<rect x="18" y="180" width="6" height="6" fill="#07192c"/>
<rect x="24" y="180" width="6" height="6" fill="#07192c"/>
<rect x="30" y="180" width="6" height="6" fill="#07192c"/>
<rect x="36" y="180" width="6" height="6" fill="#07192c"/>
<rect x="42" y="180" width="6" height="6" fill="#07192c"/>
<rect x="48" y="180" width="6" height="6" fill="#07192c"/>
<rect x="60" y="180" width="6" height="6" fill="#07192c"/>
<rect x="84" y="180" width="6" height="6" fill="#07192c"/>
<rect x="90" y="180" width="6" height="6" fill="#07192c"/>
<rect x="120" y="180" width="6" height="6" fill="#07192c"/>
<rect x="132" y="180" width="6" height="6" fill="#07192c"/>
<rect x="138" y="180" width="6" height="6" fill="#07192c"/>
<rect x="144" y="180" width="6" height="6" fill="#07192c"/>
<rect x="156" y="180" width="6" height="6" fill="#07192c"/>
<rect x="162" y="180" width="6" height="6" fill="#07192c"/>
<rect x="168" y="180" width="6" height="6" fill="#07192c"/>
<text x="50%" y="96%" text-anchor="middle" font-size="10" font-family="Arial, sans-serif" fill="#0b2745">DEMO QR</text></svg>